<svg xmlns="http://www.w3.org/2000/svg" width="1536" height="1536" viewBox="0 0 1536 1536">
<title>EduWeb Family &amp; Coaching Logo</title>
<desc>Vectorized SVG version generated from the provided EduWeb Family &amp; Coaching logo with transparent background.</desc>
<path fill="#043779" fill-rule="evenodd" d="M 1292 1365 L 1289 1368 L 1289 1370 L 1287 1374 L 1287 1377 L 1288 1378 L 1288 1381 L 1289 1383 L 1293 1387 L 1295 1387 L 1296 1388 L 1303 1388 L 1304 1387 L 1306 1387 L 1308 1385 L 1306 1383 L 1304 1385 L 1302 1385 L 1301 1386 L 1297 1386 L 1295 1385 L 1291 1381 L 1291 1379 L 1290 1378 L 1292 1376 L 1309 1376 L 1309 1372 L 1308 1371 L 1307 1367 L 1303 1364 L 1294 1364 Z M 1291 1370 L 1296 1366 L 1301 1366 L 1305 1369 L 1306 1373 L 1304 1375 L 1301 1375 L 1300 1374 L 1298 1375 L 1292 1375 L 1291 1374 Z M 1172 1365 L 1169 1368 L 1167 1372 L 1167 1379 L 1169 1383 L 1172 1386 L 1176 1388 L 1182 1388 L 1183 1387 L 1187 1386 L 1187 1384 L 1186 1383 L 1182 1386 L 1177 1386 L 1175 1385 L 1171 1381 L 1170 1378 L 1172 1376 L 1189 1376 L 1189 1372 L 1188 1371 L 1187 1367 L 1183 1364 L 1174 1364 Z M 1171 1370 L 1176 1366 L 1181 1366 L 1183 1367 L 1186 1371 L 1186 1373 L 1184 1375 L 1172 1375 L 1170 1373 Z M 1148 1364 L 1144 1369 L 1145 1373 L 1148 1376 L 1150 1376 L 1151 1377 L 1155 1378 L 1158 1381 L 1158 1382 L 1154 1386 L 1150 1386 L 1146 1384 L 1144 1384 L 1144 1386 L 1148 1388 L 1155 1388 L 1160 1385 L 1161 1380 L 1158 1376 L 1149 1373 L 1147 1371 L 1147 1369 L 1150 1366 L 1156 1366 L 1157 1367 L 1159 1367 L 1159 1365 L 1157 1364 Z M 1043 1364 L 1043 1387 L 1046 1387 L 1046 1364 Z M 1022 1364 L 1018 1368 L 1018 1372 L 1021 1375 L 1029 1378 L 1032 1381 L 1031 1384 L 1028 1386 L 1024 1386 L 1019 1383 L 1018 1384 L 1018 1386 L 1022 1387 L 1023 1388 L 1029 1388 L 1034 1385 L 1034 1383 L 1035 1382 L 1034 1378 L 1030 1375 L 1025 1374 L 1021 1370 L 1021 1369 L 1024 1366 L 1030 1366 L 1031 1367 L 1033 1367 L 1033 1365 L 1031 1364 Z M 999 1364 L 996 1366 L 995 1368 L 995 1372 L 996 1374 L 997 1374 L 999 1376 L 1001 1376 L 1002 1377 L 1006 1378 L 1008 1380 L 1008 1383 L 1005 1386 L 1000 1386 L 996 1383 L 995 1384 L 995 1386 L 999 1387 L 1000 1388 L 1005 1388 L 1006 1387 L 1008 1387 L 1011 1384 L 1011 1379 L 1010 1377 L 1000 1373 L 998 1371 L 998 1368 L 1001 1366 L 1007 1366 L 1008 1367 L 1010 1366 L 1007 1364 Z M 967 1364 L 966 1365 L 966 1382 L 968 1386 L 971 1388 L 977 1388 L 981 1385 L 983 1385 L 984 1386 L 984 1388 L 986 1387 L 986 1364 L 984 1364 L 983 1365 L 984 1367 L 984 1376 L 983 1377 L 984 1378 L 983 1379 L 983 1381 L 979 1385 L 977 1385 L 976 1386 L 973 1385 L 969 1381 L 969 1364 Z M 944 1364 L 940 1367 L 939 1367 L 937 1371 L 937 1381 L 938 1383 L 943 1387 L 945 1387 L 946 1388 L 952 1388 L 957 1385 L 956 1384 L 954 1384 L 951 1386 L 946 1386 L 941 1382 L 940 1380 L 940 1377 L 941 1376 L 958 1376 L 958 1370 L 956 1368 L 956 1367 L 952 1364 Z M 940 1371 L 941 1369 L 945 1366 L 951 1366 L 954 1369 L 955 1373 L 953 1375 L 941 1375 L 940 1374 Z M 847 1364 L 844 1364 L 839 1368 L 838 1367 L 838 1364 L 836 1364 L 835 1365 L 835 1384 L 836 1385 L 835 1387 L 838 1388 L 838 1374 L 839 1373 L 839 1371 L 843 1367 L 847 1366 Z M 763 1364 L 759 1367 L 759 1373 L 761 1375 L 765 1377 L 768 1377 L 770 1378 L 772 1380 L 772 1383 L 768 1386 L 764 1386 L 761 1384 L 759 1384 L 758 1385 L 760 1387 L 762 1387 L 763 1388 L 769 1388 L 770 1387 L 772 1387 L 774 1385 L 775 1383 L 775 1379 L 773 1376 L 771 1375 L 768 1375 L 764 1373 L 762 1371 L 762 1368 L 764 1366 L 770 1366 L 771 1367 L 773 1367 L 774 1366 L 771 1364 Z M 702 1364 L 700 1364 L 700 1366 L 699 1367 L 698 1367 L 694 1364 L 686 1364 L 681 1368 L 681 1370 L 680 1371 L 680 1381 L 683 1385 L 687 1387 L 693 1387 L 697 1384 L 698 1384 L 700 1386 L 699 1390 L 696 1394 L 692 1395 L 691 1396 L 689 1396 L 688 1395 L 686 1395 L 682 1393 L 681 1395 L 686 1398 L 694 1398 L 695 1397 L 697 1397 L 700 1394 L 701 1394 L 702 1392 L 702 1389 L 703 1388 L 702 1386 L 703 1385 L 702 1383 L 702 1378 L 703 1377 L 702 1376 L 702 1370 L 703 1369 L 703 1367 L 702 1366 L 703 1365 Z M 688 1366 L 694 1366 L 696 1367 L 700 1372 L 700 1378 L 699 1380 L 695 1384 L 693 1385 L 691 1385 L 690 1384 L 686 1383 L 684 1381 L 683 1377 L 682 1376 L 682 1374 L 683 1373 L 684 1369 Z M 653 1366 L 650 1371 L 650 1374 L 649 1375 L 651 1383 L 654 1386 L 658 1388 L 664 1388 L 665 1387 L 667 1387 L 672 1382 L 673 1380 L 673 1372 L 671 1368 L 666 1364 L 657 1364 Z M 659 1366 L 663 1366 L 664 1367 L 666 1367 L 669 1370 L 669 1372 L 670 1373 L 670 1379 L 669 1381 L 665 1385 L 663 1386 L 660 1386 L 656 1384 L 654 1382 L 653 1378 L 652 1377 L 653 1371 L 657 1367 Z M 526 1364 L 522 1367 L 520 1371 L 520 1374 L 519 1375 L 520 1381 L 521 1383 L 525 1387 L 527 1388 L 535 1388 L 539 1386 L 539 1384 L 538 1383 L 536 1385 L 530 1386 L 526 1384 L 524 1382 L 522 1378 L 524 1376 L 541 1376 L 541 1372 L 540 1371 L 540 1369 L 539 1367 L 535 1364 Z M 523 1371 L 526 1367 L 528 1366 L 533 1366 L 537 1369 L 538 1373 L 536 1375 L 524 1375 L 523 1374 Z M 441 1364 L 441 1388 L 443 1388 L 444 1387 L 444 1371 L 446 1369 L 446 1368 L 449 1366 L 454 1366 L 457 1369 L 458 1371 L 458 1387 L 460 1388 L 461 1387 L 461 1369 L 460 1367 L 457 1364 L 450 1364 L 449 1365 L 447 1365 L 446 1367 L 445 1367 L 443 1364 Z M 406 1364 L 402 1364 L 398 1368 L 396 1366 L 397 1364 L 394 1364 L 394 1387 L 395 1388 L 397 1388 L 397 1373 L 399 1369 L 404 1366 L 406 1366 Z M 348 1364 L 339 1364 L 336 1367 L 334 1367 L 333 1366 L 333 1364 L 331 1364 L 331 1398 L 333 1398 L 334 1397 L 334 1386 L 335 1385 L 341 1388 L 347 1388 L 349 1387 L 353 1383 L 353 1381 L 354 1380 L 354 1371 L 353 1369 Z M 340 1366 L 345 1366 L 347 1367 L 351 1372 L 351 1379 L 350 1381 L 346 1385 L 344 1386 L 341 1386 L 339 1385 L 334 1380 L 334 1378 L 333 1377 L 333 1375 L 334 1374 L 335 1370 Z M 1233 1367 L 1230 1364 L 1227 1364 L 1226 1363 L 1220 1365 L 1218 1368 L 1217 1368 L 1213 1364 L 1206 1364 L 1202 1367 L 1200 1366 L 1200 1364 L 1197 1364 L 1197 1387 L 1199 1388 L 1200 1387 L 1200 1371 L 1205 1366 L 1210 1366 L 1212 1367 L 1214 1370 L 1214 1388 L 1217 1388 L 1217 1372 L 1218 1370 L 1222 1366 L 1227 1366 L 1229 1367 L 1231 1370 L 1231 1387 L 1234 1387 L 1235 1386 L 1235 1372 L 1234 1371 Z M 1133 1365 L 1131 1364 L 1128 1364 L 1127 1363 L 1126 1364 L 1122 1365 L 1121 1367 L 1119 1367 L 1118 1366 L 1118 1364 L 1116 1364 L 1115 1365 L 1116 1366 L 1116 1375 L 1115 1376 L 1115 1384 L 1116 1385 L 1115 1387 L 1116 1388 L 1118 1388 L 1118 1373 L 1119 1372 L 1119 1370 L 1124 1366 L 1128 1366 L 1132 1369 L 1133 1371 L 1133 1387 L 1135 1388 L 1136 1387 L 1136 1370 Z M 1096 1363 L 1095 1364 L 1091 1365 L 1087 1369 L 1087 1371 L 1086 1372 L 1086 1380 L 1088 1384 L 1090 1386 L 1094 1388 L 1101 1388 L 1102 1387 L 1106 1386 L 1106 1384 L 1105 1383 L 1103 1385 L 1101 1385 L 1100 1386 L 1096 1386 L 1094 1385 L 1089 1380 L 1089 1378 L 1091 1376 L 1106 1376 L 1107 1377 L 1107 1370 L 1106 1368 L 1103 1365 L 1101 1364 L 1097 1364 Z M 1089 1372 L 1090 1370 L 1094 1366 L 1100 1366 L 1105 1371 L 1105 1373 L 1103 1375 L 1092 1375 L 1090 1374 Z M 1067 1363 L 1066 1364 L 1062 1365 L 1061 1367 L 1059 1367 L 1058 1366 L 1058 1364 L 1056 1364 L 1056 1370 L 1055 1371 L 1055 1387 L 1056 1388 L 1058 1388 L 1058 1374 L 1060 1370 L 1063 1367 L 1065 1367 L 1066 1366 L 1067 1367 Z M 816 1363 L 815 1364 L 812 1364 L 808 1367 L 808 1368 L 806 1370 L 806 1373 L 805 1374 L 805 1379 L 806 1380 L 806 1382 L 811 1387 L 813 1387 L 814 1388 L 820 1388 L 826 1385 L 825 1384 L 823 1384 L 819 1386 L 815 1386 L 813 1385 L 808 1379 L 808 1378 L 810 1376 L 827 1376 L 827 1371 L 824 1367 L 824 1366 L 823 1366 L 821 1364 L 817 1364 Z M 808 1372 L 812 1367 L 814 1366 L 819 1366 L 822 1368 L 824 1373 L 823 1374 L 819 1374 L 818 1375 L 817 1374 L 816 1375 L 810 1375 L 808 1373 Z M 791 1363 L 790 1364 L 786 1364 L 784 1365 L 784 1366 L 782 1368 L 782 1372 L 786 1376 L 791 1377 L 796 1381 L 796 1382 L 792 1386 L 787 1386 L 783 1383 L 782 1384 L 782 1386 L 786 1387 L 787 1388 L 793 1388 L 795 1387 L 799 1383 L 799 1380 L 796 1376 L 792 1375 L 791 1374 L 789 1374 L 785 1371 L 785 1369 L 788 1366 L 794 1366 L 795 1367 L 797 1366 L 797 1365 L 795 1364 L 792 1364 Z M 740 1363 L 739 1364 L 735 1365 L 730 1370 L 730 1372 L 729 1373 L 729 1378 L 730 1379 L 731 1383 L 735 1387 L 737 1387 L 738 1388 L 745 1388 L 750 1385 L 749 1384 L 747 1384 L 744 1386 L 740 1386 L 739 1385 L 737 1385 L 734 1382 L 732 1378 L 734 1376 L 751 1376 L 751 1370 L 749 1368 L 749 1367 L 745 1364 L 742 1364 Z M 733 1371 L 734 1369 L 738 1366 L 744 1366 L 747 1369 L 749 1373 L 746 1375 L 734 1375 L 733 1374 Z M 724 1363 L 723 1364 L 720 1364 L 717 1367 L 715 1366 L 715 1364 L 712 1364 L 712 1387 L 713 1388 L 715 1387 L 715 1374 L 716 1373 L 716 1371 L 720 1367 L 724 1367 L 725 1366 L 725 1364 Z M 644 1363 L 643 1364 L 639 1365 L 639 1366 L 637 1368 L 635 1366 L 635 1364 L 633 1364 L 632 1365 L 632 1387 L 633 1388 L 635 1388 L 635 1376 L 636 1375 L 636 1371 L 640 1367 L 644 1367 L 645 1366 L 645 1364 Z M 514 1363 L 513 1364 L 510 1364 L 506 1368 L 505 1367 L 505 1364 L 503 1364 L 502 1365 L 502 1387 L 505 1387 L 505 1382 L 506 1381 L 506 1371 L 510 1367 L 514 1367 Z M 418 1364 L 413 1368 L 413 1370 L 411 1374 L 411 1378 L 412 1379 L 412 1381 L 413 1383 L 417 1387 L 419 1387 L 420 1388 L 427 1388 L 431 1386 L 431 1384 L 430 1383 L 428 1385 L 426 1385 L 425 1386 L 421 1386 L 419 1385 L 415 1381 L 414 1378 L 416 1376 L 433 1376 L 433 1372 L 430 1366 L 429 1366 L 427 1364 L 424 1364 L 423 1363 L 422 1364 Z M 414 1372 L 418 1367 L 420 1366 L 425 1366 L 429 1370 L 430 1373 L 428 1375 L 426 1375 L 425 1374 L 424 1375 L 416 1375 L 414 1373 Z M 381 1365 L 379 1364 L 375 1364 L 374 1363 L 373 1364 L 369 1365 L 368 1367 L 366 1367 L 365 1366 L 365 1364 L 363 1364 L 363 1398 L 365 1398 L 365 1386 L 366 1385 L 368 1385 L 372 1388 L 378 1388 L 380 1387 L 384 1383 L 385 1379 L 386 1378 L 386 1373 L 385 1372 L 384 1368 Z M 371 1366 L 377 1366 L 382 1371 L 382 1373 L 383 1374 L 383 1378 L 381 1382 L 378 1385 L 376 1385 L 375 1386 L 370 1385 L 366 1381 L 365 1379 L 365 1373 L 367 1369 Z M 619 1355 L 603 1355 L 603 1387 L 604 1388 L 606 1387 L 606 1377 L 608 1375 L 616 1375 L 617 1374 L 619 1374 L 621 1373 L 625 1368 L 625 1362 L 624 1361 L 624 1359 Z M 606 1358 L 607 1357 L 617 1357 L 621 1361 L 622 1363 L 622 1366 L 621 1368 L 617 1372 L 608 1372 L 606 1370 Z M 908 1354 L 908 1388 L 909 1387 L 910 1388 L 911 1387 L 911 1375 L 912 1374 L 918 1374 L 925 1384 L 926 1387 L 928 1388 L 929 1387 L 931 1388 L 929 1384 L 926 1381 L 925 1378 L 923 1376 L 923 1374 L 928 1370 L 929 1366 L 930 1365 L 929 1364 L 929 1360 L 928 1358 L 924 1355 L 914 1355 L 913 1354 L 909 1355 Z M 911 1358 L 912 1357 L 921 1357 L 923 1358 L 926 1361 L 926 1367 L 925 1369 L 923 1371 L 913 1372 L 911 1370 Z M 307 1354 L 305 1356 L 305 1358 L 303 1361 L 302 1366 L 300 1368 L 299 1373 L 297 1376 L 297 1378 L 295 1381 L 295 1383 L 293 1386 L 293 1388 L 294 1387 L 296 1388 L 299 1382 L 299 1380 L 300 1379 L 316 1379 L 319 1384 L 319 1386 L 321 1388 L 323 1388 L 321 1380 L 316 1370 L 316 1368 L 314 1365 L 314 1363 L 312 1360 L 312 1358 L 310 1354 Z M 307 1360 L 309 1360 L 310 1361 L 310 1363 L 315 1373 L 315 1375 L 314 1376 L 302 1376 L 301 1375 L 303 1371 L 303 1369 L 305 1366 L 306 1361 Z M 1276 1353 L 1276 1387 L 1279 1387 L 1279 1353 Z M 1245 1352 L 1244 1353 L 1244 1387 L 1247 1387 L 1248 1385 L 1250 1385 L 1253 1388 L 1259 1388 L 1260 1387 L 1262 1387 L 1266 1383 L 1267 1379 L 1268 1378 L 1267 1371 L 1265 1367 L 1263 1365 L 1261 1365 L 1260 1364 L 1253 1364 L 1248 1367 L 1247 1366 L 1247 1353 Z M 1253 1366 L 1259 1366 L 1263 1370 L 1264 1372 L 1264 1379 L 1263 1381 L 1259 1385 L 1257 1386 L 1254 1386 L 1252 1385 L 1247 1380 L 1247 1372 L 1248 1370 Z M 490 1352 L 489 1353 L 489 1366 L 488 1367 L 486 1365 L 482 1364 L 481 1363 L 480 1364 L 476 1364 L 471 1368 L 469 1372 L 469 1379 L 470 1380 L 470 1382 L 473 1386 L 477 1388 L 483 1388 L 487 1385 L 488 1385 L 490 1387 L 490 1388 L 492 1388 L 492 1353 Z M 478 1366 L 483 1366 L 485 1367 L 489 1371 L 489 1374 L 490 1375 L 488 1382 L 486 1384 L 482 1386 L 479 1386 L 477 1385 L 473 1381 L 473 1379 L 472 1378 L 472 1373 L 474 1369 Z M 1312 1284 L 1312 1288 L 1374 1288 L 1374 1284 Z M 230 1284 L 231 1285 L 230 1286 L 231 1288 L 293 1288 L 293 1284 Z M 707 1261 L 705 1263 L 703 1267 L 703 1273 L 706 1279 L 708 1281 L 708 1283 L 704 1286 L 703 1286 L 698 1292 L 698 1294 L 697 1295 L 697 1301 L 698 1302 L 699 1306 L 703 1310 L 707 1312 L 711 1312 L 712 1313 L 717 1313 L 718 1312 L 721 1312 L 725 1310 L 730 1306 L 732 1308 L 733 1308 L 736 1312 L 745 1312 L 736 1303 L 735 1301 L 738 1294 L 740 1292 L 740 1290 L 742 1287 L 742 1285 L 737 1285 L 735 1287 L 735 1289 L 733 1293 L 730 1296 L 719 1284 L 729 1275 L 730 1273 L 730 1266 L 729 1264 L 725 1260 L 721 1258 L 713 1258 Z M 704 1294 L 705 1292 L 707 1291 L 711 1287 L 713 1287 L 724 1298 L 726 1302 L 721 1306 L 719 1306 L 718 1307 L 712 1307 L 711 1306 L 709 1306 L 705 1302 L 704 1300 Z M 714 1263 L 719 1263 L 721 1264 L 724 1268 L 724 1272 L 723 1274 L 719 1278 L 717 1279 L 715 1279 L 711 1275 L 710 1271 L 709 1270 L 710 1267 Z M 611 1065 L 612 1164 L 616 1179 L 624 1193 L 640 1206 L 646 1209 L 664 1213 L 677 1213 L 691 1210 L 706 1202 L 715 1193 L 718 1194 L 717 1195 L 718 1210 L 756 1210 L 756 1065 L 717 1065 L 717 1149 L 712 1162 L 704 1171 L 698 1175 L 687 1178 L 678 1178 L 665 1174 L 656 1166 L 651 1155 L 650 1065 Z M 256 1020 L 256 1057 L 254 1059 L 227 1059 L 227 1180 L 229 1188 L 235 1198 L 250 1208 L 260 1210 L 404 1210 L 405 1172 L 273 1171 L 274 1127 L 377 1127 L 377 1088 L 274 1088 L 273 1047 L 399 1046 L 400 1008 L 286 1007 L 285 1018 L 283 1020 Z M 583 1004 L 544 1004 L 544 1079 L 543 1080 L 541 1080 L 532 1072 L 518 1065 L 507 1062 L 498 1062 L 497 1061 L 483 1062 L 468 1066 L 453 1074 L 441 1085 L 434 1095 L 429 1105 L 424 1123 L 425 1156 L 430 1172 L 440 1188 L 450 1198 L 459 1204 L 477 1211 L 489 1213 L 502 1213 L 520 1209 L 530 1204 L 543 1194 L 544 1195 L 544 1210 L 583 1210 Z M 496 1096 L 511 1096 L 512 1097 L 515 1097 L 521 1100 L 523 1100 L 525 1102 L 529 1104 L 537 1112 L 542 1121 L 543 1127 L 544 1128 L 544 1147 L 543 1148 L 542 1154 L 538 1162 L 528 1172 L 527 1172 L 525 1174 L 519 1177 L 516 1177 L 512 1179 L 496 1179 L 495 1178 L 489 1177 L 481 1173 L 478 1170 L 477 1170 L 469 1161 L 469 1159 L 465 1152 L 465 1150 L 464 1149 L 464 1145 L 463 1144 L 463 1131 L 464 1130 L 464 1126 L 467 1120 L 467 1118 L 470 1114 L 470 1113 L 474 1109 L 474 1108 L 481 1102 L 489 1098 L 495 1097 Z M 1123 904 L 1100 894 L 1079 888 L 1026 881 L 1029 878 L 1083 878 L 1105 881 L 1036 773 L 1031 773 L 987 783 L 948 802 L 985 791 L 1031 784 L 1079 862 L 1078 865 L 1055 863 L 979 865 L 936 871 L 890 882 L 856 894 L 815 915 L 793 931 L 769 958 L 799 939 L 830 926 L 865 915 L 917 904 L 996 896 L 1064 897 Z M 407 904 L 441 899 L 484 896 L 536 896 L 607 903 L 645 910 L 689 922 L 727 937 L 762 958 L 736 930 L 709 911 L 686 899 L 644 883 L 600 872 L 551 865 L 521 863 L 452 865 L 451 862 L 499 784 L 544 791 L 590 805 L 540 782 L 499 773 L 493 773 L 424 881 L 450 878 L 503 878 L 505 880 L 503 882 L 480 883 L 456 887 L 428 895 Z M 1225 565 L 1225 566 L 1223 568 L 1223 573 L 1225 575 L 1225 576 L 1223 578 L 1223 580 L 1222 581 L 1223 583 L 1221 587 L 1222 588 L 1223 586 L 1223 581 L 1225 578 L 1225 574 L 1223 572 L 1223 569 L 1225 567 Z M 1163 566 L 1167 567 L 1171 570 L 1175 571 L 1181 574 L 1185 573 L 1180 573 L 1175 569 L 1176 568 L 1178 569 L 1183 569 L 1180 569 L 1178 567 L 1174 565 L 1172 565 L 1171 564 L 1170 564 L 1171 564 L 1172 566 L 1176 568 L 1175 569 L 1171 569 L 1170 568 L 1168 568 L 1167 567 Z M 1187 509 L 1186 509 L 1184 507 L 1183 508 L 1180 508 L 1176 511 L 1172 512 L 1166 515 L 1164 517 L 1162 517 L 1159 519 L 1156 519 L 1154 521 L 1150 523 L 1145 524 L 1141 527 L 1136 529 L 1140 528 L 1142 526 L 1146 525 L 1151 522 L 1153 522 L 1157 519 L 1159 519 L 1162 517 L 1164 517 L 1166 515 L 1170 513 L 1175 512 L 1179 510 L 1181 508 Z M 555 517 L 535 531 L 519 548 L 506 569 L 494 602 L 489 632 L 490 671 L 495 694 L 507 723 L 532 756 L 561 779 L 601 799 L 685 828 L 723 846 L 735 854 L 752 870 L 760 881 L 765 893 L 763 878 L 755 860 L 750 853 L 728 833 L 709 822 L 643 793 L 619 778 L 591 755 L 572 734 L 562 719 L 552 700 L 546 680 L 544 664 L 545 640 L 549 622 L 552 621 L 554 654 L 561 680 L 571 701 L 582 718 L 596 735 L 625 761 L 651 778 L 673 789 L 684 792 L 687 772 L 687 742 L 683 726 L 673 708 L 647 678 L 627 650 L 615 628 L 611 610 L 614 601 L 619 595 L 627 591 L 637 591 L 646 595 L 678 626 L 691 635 L 706 641 L 701 618 L 703 586 L 693 562 L 681 545 L 663 528 L 632 512 L 609 507 L 589 507 L 570 511 Z M 637 382 L 636 383 L 632 383 L 631 384 L 629 384 L 628 385 L 620 387 L 616 390 L 613 391 L 610 394 L 609 394 L 598 406 L 597 409 L 595 411 L 593 415 L 593 417 L 591 420 L 590 426 L 589 427 L 589 431 L 588 432 L 588 452 L 589 453 L 589 457 L 590 458 L 590 460 L 591 461 L 591 463 L 593 466 L 594 470 L 596 472 L 599 478 L 604 483 L 605 485 L 606 485 L 610 489 L 611 489 L 616 493 L 622 496 L 628 497 L 629 498 L 632 498 L 633 499 L 637 499 L 638 500 L 647 500 L 648 499 L 653 499 L 654 498 L 657 498 L 658 497 L 663 496 L 671 492 L 673 490 L 677 488 L 686 479 L 686 478 L 691 472 L 694 466 L 694 464 L 696 461 L 697 456 L 698 455 L 698 450 L 699 449 L 699 431 L 698 430 L 698 426 L 697 425 L 696 419 L 690 407 L 687 404 L 687 403 L 678 394 L 677 394 L 674 391 L 671 390 L 669 388 L 665 386 L 663 386 L 662 385 L 659 385 L 658 384 L 656 384 L 655 383 L 651 383 L 650 382 Z M 1196 344 L 1194 344 L 1194 392 L 1193 393 L 1178 393 L 1177 394 L 1173 394 L 1172 395 L 1164 397 L 1159 400 L 1163 399 L 1164 398 L 1167 398 L 1168 397 L 1174 397 L 1175 396 L 1187 396 L 1188 397 L 1197 397 L 1197 346 Z M 1105 344 L 1105 367 L 1104 368 L 1105 369 L 1105 396 L 1104 397 L 1105 398 L 1106 397 L 1113 397 L 1114 396 L 1128 396 L 1129 397 L 1134 397 L 1135 398 L 1138 398 L 1142 400 L 1137 397 L 1135 397 L 1131 395 L 1128 395 L 1127 394 L 1124 394 L 1123 393 L 1110 393 L 1109 394 L 1107 392 L 1107 345 Z M 1188 335 L 1182 335 L 1181 336 L 1171 337 L 1168 339 L 1166 339 L 1158 343 L 1154 347 L 1153 349 L 1154 351 L 1154 359 L 1153 360 L 1153 381 L 1154 382 L 1154 390 L 1153 391 L 1153 393 L 1154 394 L 1153 396 L 1154 396 L 1159 392 L 1162 391 L 1164 389 L 1168 388 L 1169 387 L 1171 387 L 1172 386 L 1176 386 L 1177 385 L 1188 385 Z M 1114 335 L 1113 336 L 1113 385 L 1124 385 L 1125 386 L 1129 386 L 1130 387 L 1135 388 L 1139 390 L 1141 392 L 1144 393 L 1148 397 L 1148 348 L 1143 343 L 1133 338 L 1127 337 L 1126 336 Z M 1107 455 L 1034 393 L 781 206 L 767 204 L 513 392 L 430 457 L 484 455 L 486 457 L 485 558 L 492 543 L 514 511 L 514 453 L 518 435 L 529 418 L 771 238 L 1004 408 L 1013 417 L 1022 435 L 1024 444 L 1024 474 L 1017 498 L 1006 518 L 996 530 L 1015 523 L 1036 505 L 1049 483 L 1056 455 Z"/>
<path fill="#679f1d" fill-rule="evenodd" d="M 572 1365 L 571 1366 L 568 1366 L 566 1367 L 564 1371 L 564 1375 L 565 1377 L 567 1379 L 569 1379 L 570 1380 L 573 1380 L 575 1379 L 578 1375 L 578 1370 L 577 1368 L 575 1366 L 573 1366 Z M 1088 1068 L 1073 1077 L 1061 1089 L 1056 1096 L 1048 1115 L 1045 1133 L 1046 1152 L 1051 1169 L 1055 1177 L 1063 1188 L 1075 1199 L 1092 1208 L 1102 1211 L 1114 1213 L 1136 1213 L 1152 1210 L 1173 1201 L 1180 1196 L 1188 1187 L 1167 1167 L 1164 1167 L 1156 1174 L 1139 1181 L 1134 1182 L 1116 1181 L 1103 1176 L 1092 1166 L 1087 1158 L 1086 1150 L 1087 1149 L 1197 1149 L 1197 1142 L 1198 1141 L 1197 1122 L 1192 1104 L 1188 1096 L 1181 1086 L 1169 1075 L 1157 1068 L 1138 1062 L 1129 1062 L 1128 1061 L 1108 1062 Z M 1086 1119 L 1089 1113 L 1089 1111 L 1092 1108 L 1092 1107 L 1099 1100 L 1100 1100 L 1105 1096 L 1107 1096 L 1110 1094 L 1113 1094 L 1114 1093 L 1132 1093 L 1133 1094 L 1139 1095 L 1141 1097 L 1144 1098 L 1146 1100 L 1147 1100 L 1154 1107 L 1158 1115 L 1159 1121 L 1160 1122 L 1158 1124 L 1087 1124 L 1086 1123 Z M 160 1047 L 159 1048 L 159 1075 L 160 1076 L 186 1076 L 187 1075 L 187 1048 L 186 1047 Z M 200 1017 L 200 1046 L 234 1046 L 234 1016 L 201 1016 Z M 767 1010 L 828 1210 L 870 1209 L 909 1080 L 914 1089 L 949 1210 L 992 1210 L 1053 1009 L 1012 1010 L 974 1145 L 971 1149 L 928 1009 L 892 1010 L 850 1149 L 812 1011 L 809 1009 Z M 1223 1004 L 1222 1005 L 1222 1209 L 1223 1210 L 1260 1210 L 1260 1196 L 1261 1195 L 1274 1205 L 1282 1209 L 1297 1213 L 1322 1212 L 1335 1208 L 1345 1203 L 1352 1198 L 1364 1185 L 1372 1170 L 1376 1157 L 1377 1123 L 1372 1104 L 1364 1089 L 1353 1077 L 1341 1069 L 1329 1064 L 1313 1061 L 1294 1062 L 1287 1064 L 1276 1069 L 1262 1080 L 1261 1079 L 1261 1004 L 1259 1003 L 1256 1004 L 1252 1003 L 1249 1004 Z M 1294 1096 L 1304 1096 L 1305 1097 L 1310 1097 L 1322 1103 L 1331 1112 L 1331 1113 L 1333 1115 L 1336 1121 L 1337 1127 L 1338 1128 L 1338 1148 L 1337 1149 L 1336 1154 L 1332 1162 L 1326 1169 L 1325 1169 L 1319 1174 L 1313 1177 L 1311 1177 L 1310 1178 L 1306 1178 L 1305 1179 L 1293 1179 L 1292 1178 L 1288 1178 L 1277 1173 L 1273 1169 L 1272 1169 L 1269 1166 L 1269 1165 L 1266 1162 L 1266 1161 L 1263 1157 L 1263 1155 L 1261 1151 L 1261 1148 L 1260 1147 L 1260 1143 L 1259 1142 L 1260 1127 L 1261 1126 L 1262 1121 L 1267 1112 L 1276 1103 L 1279 1102 L 1281 1100 L 1285 1099 L 1286 1098 L 1293 1097 Z M 170 986 L 170 1014 L 171 1015 L 198 1015 L 198 986 Z M 238 974 L 238 1006 L 273 1006 L 273 974 Z M 208 941 L 207 943 L 207 968 L 208 970 L 235 970 L 235 941 Z M 402 949 L 447 940 L 501 934 L 559 933 L 590 935 L 645 943 L 689 954 L 731 970 L 760 987 L 773 986 L 802 969 L 845 953 L 886 943 L 942 935 L 973 933 L 1043 935 L 1077 939 L 1128 949 L 1109 922 L 1058 914 L 1010 911 L 935 915 L 867 928 L 814 946 L 788 959 L 768 972 L 762 972 L 719 947 L 678 932 L 629 920 L 566 912 L 496 912 L 421 922 Z M 1144 802 L 1135 802 L 1134 801 L 1129 801 L 1128 800 L 1124 800 L 1123 799 L 1117 798 L 1107 793 L 1105 793 L 1104 794 L 1103 797 L 1100 800 L 1099 803 L 1087 820 L 1087 822 L 1089 824 L 1090 827 L 1093 830 L 1093 831 L 1095 833 L 1095 834 L 1097 836 L 1097 837 L 1099 839 L 1099 840 L 1106 850 L 1108 850 L 1108 849 L 1112 845 L 1112 844 L 1126 828 L 1126 827 L 1138 812 L 1138 811 L 1140 809 Z M 1155 638 L 1154 640 L 1154 645 L 1155 646 L 1164 647 L 1165 648 L 1170 649 L 1173 651 L 1175 651 L 1179 653 L 1187 659 L 1188 659 L 1192 663 L 1193 663 L 1197 667 L 1198 667 L 1199 665 L 1199 662 L 1200 661 L 1200 658 L 1202 654 L 1202 651 L 1203 650 L 1203 647 L 1204 646 L 1205 639 L 1203 640 L 1199 640 L 1198 641 L 1193 641 L 1192 642 L 1173 642 L 1172 641 L 1167 641 L 1166 640 L 1162 640 L 1158 638 Z M 1209 434 L 1208 434 L 1205 437 L 1204 437 L 1201 440 L 1200 440 L 1195 444 L 1187 448 L 1185 448 L 1184 449 L 1182 449 L 1178 451 L 1171 452 L 1170 453 L 1166 453 L 1165 454 L 1159 454 L 1160 464 L 1170 463 L 1171 462 L 1195 462 L 1196 463 L 1201 463 L 1202 464 L 1209 465 L 1215 468 L 1214 458 L 1213 457 L 1213 452 L 1212 451 L 1212 446 L 1211 445 L 1211 441 L 1210 440 Z M 780 355 L 779 357 L 779 382 L 781 384 L 783 384 L 784 385 L 793 385 L 794 384 L 808 384 L 810 381 L 809 380 L 809 377 L 810 376 L 810 359 L 809 358 L 809 356 L 807 354 L 782 354 Z M 737 354 L 735 356 L 735 383 L 736 384 L 749 384 L 750 385 L 764 384 L 765 382 L 765 356 L 763 354 Z M 781 311 L 779 314 L 779 338 L 782 341 L 807 341 L 809 339 L 809 329 L 810 328 L 810 318 L 809 317 L 809 312 L 808 311 L 805 311 L 804 310 L 789 310 L 788 311 Z M 736 311 L 735 312 L 735 339 L 738 341 L 762 341 L 764 340 L 765 338 L 765 313 L 764 311 L 762 310 L 748 310 L 747 311 Z M 1142 282 L 1141 283 L 1131 284 L 1113 291 L 1098 301 L 1088 311 L 1079 324 L 1074 334 L 1072 343 L 1071 344 L 1071 347 L 1070 348 L 1070 352 L 1069 353 L 1068 371 L 1069 372 L 1069 377 L 1070 378 L 1070 383 L 1071 384 L 1072 392 L 1074 395 L 1076 402 L 1078 404 L 1083 414 L 1089 422 L 1096 429 L 1108 438 L 1125 446 L 1128 446 L 1137 449 L 1147 449 L 1148 450 L 1150 449 L 1164 449 L 1165 448 L 1169 448 L 1170 447 L 1179 445 L 1195 437 L 1205 430 L 1219 414 L 1226 402 L 1226 400 L 1229 395 L 1230 389 L 1231 388 L 1231 384 L 1233 378 L 1233 367 L 1234 366 L 1233 352 L 1232 351 L 1232 347 L 1231 346 L 1229 337 L 1220 319 L 1215 312 L 1199 297 L 1183 288 L 1171 284 L 1160 283 L 1159 282 Z M 1146 301 L 1158 301 L 1159 302 L 1163 302 L 1164 303 L 1171 304 L 1184 310 L 1190 315 L 1191 315 L 1201 325 L 1201 326 L 1206 332 L 1211 342 L 1211 344 L 1212 345 L 1212 347 L 1214 351 L 1214 355 L 1215 356 L 1215 374 L 1214 375 L 1214 380 L 1213 381 L 1213 384 L 1212 385 L 1212 387 L 1210 390 L 1210 392 L 1207 398 L 1205 400 L 1201 407 L 1192 416 L 1191 416 L 1188 419 L 1187 419 L 1182 423 L 1176 426 L 1174 426 L 1171 428 L 1169 428 L 1168 429 L 1164 429 L 1163 430 L 1157 430 L 1156 431 L 1145 431 L 1144 430 L 1138 430 L 1137 429 L 1134 429 L 1133 428 L 1128 427 L 1123 424 L 1121 424 L 1119 422 L 1112 418 L 1100 406 L 1100 405 L 1095 399 L 1091 391 L 1091 389 L 1089 386 L 1089 384 L 1088 383 L 1088 379 L 1087 378 L 1087 372 L 1086 371 L 1086 360 L 1087 359 L 1087 353 L 1088 352 L 1088 349 L 1089 348 L 1090 343 L 1096 331 L 1102 324 L 1102 323 L 1108 317 L 1109 317 L 1116 311 L 1128 305 L 1130 305 L 1134 303 L 1137 303 L 1138 302 L 1145 302 Z M 704 153 L 740 145 L 787 140 L 842 142 L 889 151 L 921 161 L 954 175 L 975 186 L 1008 207 L 1042 234 L 1069 261 L 1095 293 L 1104 286 L 1120 278 L 1138 274 L 1116 246 L 1094 224 L 1055 193 L 1023 173 L 995 159 L 943 140 L 909 132 L 881 128 L 827 126 L 774 132 L 734 142 Z"/>
<path fill="#0860a8" fill-rule="evenodd" d="M 1162 1259 L 1162 1311 L 1164 1311 L 1165 1312 L 1170 1311 L 1170 1308 L 1169 1307 L 1169 1300 L 1170 1299 L 1170 1278 L 1169 1276 L 1171 1274 L 1175 1277 L 1174 1278 L 1181 1286 L 1181 1287 L 1186 1293 L 1187 1296 L 1190 1299 L 1190 1300 L 1192 1300 L 1193 1301 L 1192 1303 L 1195 1306 L 1195 1307 L 1198 1310 L 1198 1311 L 1200 1311 L 1201 1312 L 1203 1311 L 1207 1311 L 1207 1259 L 1199 1259 L 1200 1260 L 1199 1261 L 1199 1295 L 1198 1296 L 1193 1292 L 1194 1291 L 1188 1284 L 1186 1280 L 1183 1277 L 1183 1276 L 1180 1273 L 1180 1272 L 1177 1269 L 1177 1268 L 1175 1267 L 1176 1266 L 1173 1263 L 1173 1262 L 1170 1259 Z M 1128 1259 L 1128 1311 L 1131 1311 L 1133 1312 L 1134 1311 L 1136 1311 L 1136 1260 L 1135 1259 Z M 1060 1259 L 1060 1268 L 1059 1269 L 1059 1276 L 1060 1277 L 1060 1281 L 1059 1282 L 1059 1289 L 1060 1290 L 1060 1311 L 1061 1312 L 1065 1312 L 1067 1311 L 1067 1300 L 1068 1299 L 1068 1290 L 1071 1288 L 1072 1289 L 1074 1288 L 1092 1288 L 1095 1291 L 1095 1311 L 1097 1312 L 1102 1312 L 1102 1261 L 1103 1260 L 1102 1259 L 1095 1259 L 1095 1271 L 1094 1272 L 1094 1277 L 1095 1278 L 1095 1280 L 1093 1282 L 1070 1282 L 1067 1279 L 1067 1265 L 1068 1264 L 1067 1260 L 1066 1259 Z M 946 1259 L 945 1263 L 942 1268 L 941 1273 L 939 1276 L 939 1278 L 936 1283 L 937 1284 L 937 1285 L 935 1286 L 936 1288 L 934 1289 L 932 1293 L 932 1296 L 929 1301 L 929 1303 L 925 1311 L 926 1310 L 928 1312 L 931 1312 L 933 1311 L 935 1308 L 935 1306 L 937 1303 L 937 1301 L 940 1299 L 961 1299 L 964 1301 L 964 1303 L 966 1306 L 967 1310 L 974 1312 L 976 1310 L 975 1309 L 975 1307 L 973 1304 L 973 1302 L 971 1299 L 971 1297 L 969 1294 L 969 1292 L 966 1287 L 964 1279 L 961 1274 L 961 1272 L 960 1271 L 959 1266 L 956 1261 L 956 1259 Z M 950 1269 L 951 1269 L 953 1271 L 953 1273 L 955 1276 L 956 1281 L 958 1284 L 958 1286 L 960 1290 L 960 1292 L 959 1293 L 943 1293 L 942 1292 L 942 1289 L 941 1288 L 943 1287 L 944 1285 L 945 1280 L 947 1277 L 947 1275 Z M 1251 1258 L 1250 1259 L 1248 1259 L 1244 1261 L 1240 1264 L 1238 1264 L 1237 1265 L 1237 1267 L 1236 1268 L 1235 1267 L 1236 1268 L 1234 1269 L 1231 1273 L 1232 1275 L 1230 1276 L 1231 1278 L 1229 1281 L 1229 1290 L 1231 1293 L 1230 1295 L 1232 1296 L 1231 1297 L 1232 1299 L 1235 1301 L 1234 1302 L 1235 1302 L 1236 1304 L 1240 1308 L 1248 1312 L 1250 1311 L 1254 1313 L 1259 1313 L 1260 1312 L 1263 1312 L 1264 1311 L 1265 1312 L 1271 1309 L 1273 1309 L 1276 1307 L 1276 1301 L 1277 1300 L 1277 1291 L 1276 1290 L 1276 1286 L 1275 1285 L 1259 1285 L 1258 1287 L 1258 1290 L 1259 1291 L 1260 1290 L 1261 1291 L 1268 1291 L 1269 1292 L 1269 1295 L 1270 1296 L 1269 1302 L 1264 1305 L 1259 1305 L 1258 1306 L 1256 1306 L 1255 1305 L 1250 1305 L 1246 1302 L 1245 1302 L 1241 1298 L 1241 1297 L 1238 1293 L 1238 1290 L 1237 1289 L 1237 1282 L 1238 1281 L 1238 1278 L 1241 1274 L 1241 1273 L 1246 1268 L 1252 1265 L 1261 1265 L 1262 1266 L 1266 1267 L 1268 1269 L 1271 1269 L 1274 1265 L 1274 1264 L 1272 1262 L 1266 1259 L 1264 1259 L 1263 1258 Z M 1013 1258 L 1012 1259 L 1010 1259 L 1004 1262 L 1002 1264 L 998 1266 L 998 1268 L 997 1270 L 995 1271 L 993 1275 L 992 1280 L 991 1281 L 991 1284 L 992 1285 L 991 1286 L 992 1288 L 991 1290 L 992 1291 L 992 1293 L 993 1294 L 993 1296 L 995 1300 L 997 1301 L 996 1302 L 1002 1308 L 1010 1312 L 1011 1311 L 1013 1311 L 1015 1313 L 1027 1312 L 1035 1308 L 1037 1306 L 1036 1305 L 1037 1304 L 1035 1303 L 1033 1300 L 1032 1300 L 1031 1302 L 1029 1302 L 1027 1304 L 1025 1304 L 1024 1305 L 1013 1305 L 1009 1303 L 1003 1297 L 1003 1296 L 1001 1295 L 1002 1294 L 1000 1290 L 1000 1281 L 1001 1280 L 1001 1277 L 1003 1273 L 1008 1268 L 1014 1265 L 1023 1265 L 1024 1266 L 1026 1266 L 1028 1268 L 1032 1270 L 1036 1267 L 1036 1264 L 1035 1264 L 1034 1262 L 1030 1260 L 1028 1260 L 1024 1258 Z M 877 1258 L 876 1259 L 871 1260 L 865 1263 L 859 1269 L 856 1275 L 856 1277 L 855 1278 L 855 1293 L 860 1303 L 864 1307 L 867 1308 L 869 1310 L 873 1311 L 874 1312 L 876 1311 L 879 1313 L 890 1312 L 900 1307 L 904 1303 L 905 1300 L 907 1298 L 908 1294 L 909 1293 L 908 1292 L 909 1291 L 908 1289 L 910 1287 L 909 1285 L 909 1277 L 905 1269 L 898 1262 L 894 1260 L 889 1259 L 888 1258 Z M 878 1265 L 886 1265 L 894 1269 L 899 1275 L 900 1279 L 901 1280 L 901 1290 L 900 1291 L 900 1293 L 898 1297 L 893 1302 L 892 1302 L 888 1305 L 876 1305 L 875 1304 L 873 1304 L 867 1299 L 863 1291 L 863 1280 L 864 1279 L 864 1277 L 866 1273 L 870 1269 Z M 811 1258 L 810 1259 L 808 1259 L 804 1261 L 803 1263 L 800 1263 L 795 1268 L 796 1269 L 794 1270 L 792 1274 L 792 1276 L 790 1279 L 790 1291 L 791 1292 L 791 1294 L 793 1297 L 794 1301 L 799 1307 L 809 1312 L 811 1311 L 814 1313 L 821 1313 L 820 1312 L 821 1311 L 828 1311 L 832 1309 L 836 1306 L 836 1304 L 832 1300 L 829 1301 L 827 1303 L 823 1305 L 812 1305 L 811 1304 L 809 1304 L 806 1301 L 805 1301 L 800 1295 L 800 1292 L 799 1291 L 799 1288 L 798 1287 L 798 1285 L 799 1284 L 799 1279 L 800 1278 L 799 1277 L 807 1268 L 813 1265 L 821 1265 L 822 1266 L 825 1266 L 830 1270 L 832 1270 L 836 1265 L 833 1262 L 832 1263 L 831 1261 L 827 1260 L 826 1259 L 824 1259 L 823 1258 Z M 1168 472 L 1167 474 L 1163 475 L 1159 474 L 1158 477 L 1154 476 L 1155 477 L 1154 478 L 1151 477 L 1152 478 L 1147 481 L 1145 480 L 1143 481 L 1145 482 L 1138 486 L 1136 485 L 1135 486 L 1136 487 L 1132 490 L 1131 489 L 1132 490 L 1130 492 L 1129 491 L 1128 494 L 1124 498 L 1123 497 L 1124 498 L 1122 500 L 1121 499 L 1122 500 L 1118 505 L 1117 504 L 1118 505 L 1114 511 L 1113 510 L 1114 512 L 1110 519 L 1109 518 L 1110 521 L 1109 522 L 1108 520 L 1109 523 L 1108 524 L 1107 523 L 1108 524 L 1107 526 L 1106 525 L 1107 530 L 1104 539 L 1103 537 L 1102 544 L 1102 559 L 1104 560 L 1103 565 L 1104 562 L 1105 563 L 1104 570 L 1105 568 L 1107 573 L 1105 575 L 1107 580 L 1108 579 L 1109 580 L 1108 583 L 1109 581 L 1113 589 L 1112 591 L 1114 592 L 1113 593 L 1114 592 L 1116 594 L 1115 596 L 1116 595 L 1117 596 L 1116 598 L 1117 597 L 1120 600 L 1119 602 L 1120 601 L 1125 607 L 1124 608 L 1127 611 L 1128 610 L 1129 612 L 1131 612 L 1132 613 L 1131 614 L 1132 613 L 1134 615 L 1133 616 L 1134 615 L 1137 619 L 1139 618 L 1144 622 L 1146 622 L 1148 624 L 1147 625 L 1149 624 L 1150 625 L 1149 626 L 1151 625 L 1152 627 L 1154 626 L 1155 628 L 1159 627 L 1172 631 L 1193 631 L 1194 632 L 1195 630 L 1200 631 L 1199 630 L 1202 628 L 1211 625 L 1214 626 L 1213 625 L 1214 624 L 1218 624 L 1220 623 L 1219 622 L 1227 617 L 1228 618 L 1227 617 L 1229 615 L 1231 616 L 1230 615 L 1237 608 L 1240 607 L 1239 606 L 1243 602 L 1244 603 L 1243 601 L 1248 595 L 1249 596 L 1248 594 L 1251 593 L 1252 591 L 1251 589 L 1252 588 L 1253 589 L 1252 587 L 1253 586 L 1254 587 L 1253 585 L 1255 584 L 1254 583 L 1257 580 L 1256 578 L 1258 577 L 1257 573 L 1258 572 L 1259 573 L 1258 567 L 1260 560 L 1261 564 L 1260 559 L 1261 539 L 1260 541 L 1259 540 L 1260 533 L 1259 534 L 1258 533 L 1259 528 L 1257 527 L 1258 526 L 1257 523 L 1255 522 L 1256 521 L 1253 517 L 1254 516 L 1253 517 L 1252 516 L 1253 514 L 1252 515 L 1251 514 L 1252 512 L 1251 510 L 1248 509 L 1249 507 L 1248 508 L 1246 503 L 1245 504 L 1243 501 L 1244 500 L 1243 499 L 1242 500 L 1240 498 L 1240 496 L 1237 495 L 1235 491 L 1234 492 L 1232 490 L 1233 489 L 1232 488 L 1231 489 L 1228 485 L 1227 486 L 1220 480 L 1219 481 L 1210 477 L 1211 476 L 1208 477 L 1207 476 L 1208 475 L 1203 475 L 1202 473 L 1197 474 L 1196 472 L 1194 473 L 1184 473 L 1183 472 L 1187 471 L 1178 471 L 1175 473 Z M 1143 559 L 1144 558 L 1145 559 L 1146 558 L 1148 559 L 1147 558 L 1149 557 L 1159 562 L 1160 563 L 1159 564 L 1160 565 L 1161 563 L 1162 564 L 1162 566 L 1164 565 L 1165 566 L 1167 566 L 1168 567 L 1167 568 L 1168 567 L 1170 567 L 1171 568 L 1175 568 L 1176 569 L 1175 570 L 1176 569 L 1180 572 L 1185 572 L 1186 573 L 1187 571 L 1189 571 L 1190 570 L 1194 570 L 1196 569 L 1195 568 L 1197 566 L 1202 565 L 1206 562 L 1208 562 L 1209 563 L 1208 562 L 1209 561 L 1215 558 L 1217 558 L 1218 560 L 1219 559 L 1220 560 L 1220 582 L 1214 588 L 1206 591 L 1205 593 L 1204 592 L 1203 594 L 1202 593 L 1203 594 L 1202 595 L 1200 595 L 1199 594 L 1200 595 L 1199 596 L 1196 595 L 1197 596 L 1192 599 L 1174 599 L 1173 598 L 1174 597 L 1177 597 L 1171 598 L 1170 597 L 1171 596 L 1169 596 L 1168 597 L 1167 595 L 1165 594 L 1162 595 L 1161 594 L 1162 593 L 1160 594 L 1159 593 L 1160 592 L 1159 593 L 1158 592 L 1156 592 L 1155 591 L 1156 590 L 1154 590 L 1153 588 L 1152 589 L 1151 587 L 1146 582 L 1145 583 L 1144 582 L 1145 580 L 1144 581 L 1143 580 Z M 1229 550 L 1230 552 L 1232 553 L 1232 567 L 1233 568 L 1233 572 L 1232 573 L 1233 572 L 1234 573 L 1233 577 L 1232 578 L 1233 577 L 1234 578 L 1233 582 L 1234 580 L 1235 581 L 1235 591 L 1234 592 L 1233 591 L 1234 592 L 1231 594 L 1229 593 L 1228 594 L 1226 594 L 1223 590 L 1223 587 L 1222 589 L 1220 587 L 1222 583 L 1221 582 L 1222 578 L 1224 576 L 1224 575 L 1222 573 L 1222 568 L 1225 564 L 1226 565 L 1226 557 L 1224 556 L 1225 554 L 1227 553 L 1226 552 Z M 1245 540 L 1243 542 L 1242 542 L 1243 543 L 1241 545 L 1239 545 L 1235 547 L 1233 549 L 1230 549 L 1229 548 L 1230 549 L 1227 551 L 1225 551 L 1224 550 L 1220 552 L 1219 554 L 1218 553 L 1219 554 L 1218 555 L 1215 554 L 1217 555 L 1210 559 L 1208 559 L 1207 558 L 1206 560 L 1205 559 L 1206 560 L 1205 561 L 1203 561 L 1202 560 L 1203 561 L 1201 563 L 1200 563 L 1199 565 L 1194 565 L 1193 564 L 1194 565 L 1193 566 L 1191 565 L 1192 566 L 1191 567 L 1189 567 L 1188 566 L 1185 568 L 1183 568 L 1184 569 L 1183 570 L 1178 570 L 1172 567 L 1171 566 L 1172 564 L 1170 565 L 1169 563 L 1167 562 L 1165 563 L 1163 561 L 1157 560 L 1153 558 L 1151 556 L 1149 556 L 1145 551 L 1141 549 L 1140 550 L 1138 548 L 1135 548 L 1133 545 L 1131 544 L 1130 545 L 1129 543 L 1128 544 L 1123 543 L 1122 542 L 1123 541 L 1125 541 L 1122 540 L 1119 536 L 1121 534 L 1125 533 L 1126 532 L 1128 532 L 1129 533 L 1130 531 L 1131 532 L 1133 531 L 1132 530 L 1133 529 L 1135 530 L 1136 528 L 1140 526 L 1142 527 L 1141 526 L 1145 523 L 1147 523 L 1148 522 L 1150 522 L 1151 523 L 1150 522 L 1153 520 L 1155 521 L 1154 520 L 1156 518 L 1159 518 L 1160 517 L 1162 518 L 1161 517 L 1162 516 L 1164 516 L 1165 515 L 1166 516 L 1165 515 L 1166 514 L 1168 515 L 1167 514 L 1168 513 L 1170 514 L 1169 513 L 1170 512 L 1174 511 L 1180 507 L 1183 507 L 1184 506 L 1188 509 L 1186 510 L 1189 510 L 1190 512 L 1192 511 L 1193 512 L 1192 513 L 1193 512 L 1195 512 L 1199 515 L 1203 516 L 1205 518 L 1204 519 L 1205 518 L 1209 519 L 1213 522 L 1212 523 L 1214 522 L 1215 523 L 1219 524 L 1220 525 L 1219 526 L 1220 527 L 1221 526 L 1222 528 L 1224 527 L 1225 528 L 1224 529 L 1226 528 L 1228 529 L 1230 532 L 1232 532 L 1234 534 L 1235 533 L 1236 535 L 1238 534 L 1240 537 L 1242 538 L 1243 537 Z M 934 102 L 907 92 L 866 81 L 835 75 L 789 70 L 734 70 L 705 73 L 659 81 L 621 93 L 619 92 L 568 112 L 568 114 L 566 113 L 566 115 L 562 115 L 535 129 L 535 131 L 533 130 L 533 132 L 528 133 L 526 136 L 507 146 L 501 152 L 498 152 L 495 156 L 487 160 L 486 163 L 483 163 L 478 169 L 474 170 L 458 185 L 457 184 L 422 218 L 397 247 L 376 276 L 360 302 L 359 307 L 353 314 L 332 358 L 310 425 L 298 493 L 298 581 L 311 655 L 326 702 L 340 735 L 354 762 L 376 797 L 395 822 L 421 851 L 424 850 L 442 820 L 418 784 L 396 740 L 377 686 L 367 645 L 361 607 L 360 584 L 358 582 L 358 536 L 360 533 L 359 524 L 364 490 L 370 464 L 369 460 L 371 459 L 385 408 L 407 357 L 434 310 L 467 266 L 469 266 L 468 265 L 506 225 L 528 206 L 571 174 L 632 142 L 632 140 L 634 141 L 644 135 L 648 135 L 656 130 L 658 131 L 658 129 L 660 130 L 671 124 L 673 125 L 706 113 L 745 105 L 746 103 L 751 104 L 752 102 L 756 103 L 774 100 L 776 98 L 783 99 L 784 97 L 869 95 L 891 98 L 899 97 L 901 99 L 935 104 Z"/>
<path fill="#c91b6c" fill-rule="evenodd" d="M 875 1365 L 871 1367 L 869 1371 L 869 1374 L 870 1375 L 870 1377 L 872 1379 L 874 1380 L 878 1380 L 882 1378 L 884 1374 L 884 1371 L 882 1367 L 878 1365 Z M 605 1258 L 605 1260 L 607 1262 L 608 1265 L 612 1270 L 614 1275 L 616 1277 L 619 1283 L 621 1285 L 622 1288 L 624 1290 L 624 1312 L 633 1312 L 633 1291 L 636 1287 L 637 1284 L 639 1282 L 640 1279 L 642 1277 L 643 1274 L 645 1272 L 646 1269 L 648 1267 L 650 1262 L 652 1260 L 652 1258 L 643 1258 L 641 1262 L 639 1264 L 637 1269 L 633 1274 L 631 1279 L 629 1281 L 626 1278 L 625 1275 L 620 1268 L 618 1263 L 614 1258 Z M 565 1258 L 564 1259 L 564 1261 L 565 1262 L 565 1269 L 564 1270 L 564 1312 L 598 1312 L 598 1304 L 575 1304 L 574 1303 L 574 1299 L 573 1298 L 573 1293 L 574 1292 L 573 1261 L 574 1260 L 573 1258 Z M 531 1258 L 530 1259 L 530 1312 L 539 1312 L 539 1259 L 538 1258 Z M 447 1258 L 447 1312 L 456 1312 L 456 1275 L 457 1274 L 469 1298 L 474 1305 L 478 1305 L 480 1303 L 481 1299 L 484 1295 L 485 1291 L 487 1289 L 493 1276 L 495 1274 L 496 1275 L 496 1281 L 495 1282 L 495 1291 L 496 1292 L 495 1294 L 495 1311 L 496 1312 L 505 1312 L 505 1259 L 504 1258 L 494 1258 L 491 1261 L 490 1265 L 488 1269 L 486 1271 L 478 1287 L 478 1289 L 476 1291 L 474 1289 L 459 1259 L 458 1258 Z M 397 1258 L 395 1260 L 395 1262 L 393 1265 L 393 1267 L 391 1270 L 391 1272 L 389 1275 L 389 1277 L 387 1280 L 387 1282 L 385 1285 L 385 1287 L 383 1290 L 383 1292 L 381 1295 L 381 1297 L 378 1302 L 378 1304 L 375 1310 L 375 1312 L 384 1312 L 386 1308 L 387 1303 L 389 1300 L 412 1300 L 414 1302 L 415 1306 L 418 1312 L 428 1312 L 426 1309 L 426 1307 L 424 1304 L 424 1302 L 421 1297 L 421 1295 L 419 1292 L 419 1290 L 417 1287 L 417 1285 L 415 1282 L 414 1277 L 412 1274 L 412 1272 L 410 1269 L 410 1267 L 408 1264 L 407 1260 L 405 1258 Z M 401 1270 L 403 1272 L 404 1277 L 409 1287 L 409 1289 L 410 1290 L 409 1292 L 393 1292 L 392 1291 L 394 1287 L 394 1285 L 396 1282 L 397 1277 L 399 1274 L 399 1272 Z M 363 1258 L 330 1258 L 329 1259 L 329 1312 L 338 1312 L 338 1292 L 340 1290 L 360 1290 L 360 1283 L 359 1282 L 339 1282 L 338 1281 L 338 1268 L 340 1266 L 359 1266 L 360 1267 L 361 1266 L 363 1266 Z M 1128 654 L 1127 655 L 1124 655 L 1123 656 L 1115 658 L 1102 665 L 1086 680 L 1082 686 L 1077 696 L 1076 701 L 1074 704 L 1074 708 L 1073 709 L 1073 715 L 1072 716 L 1072 729 L 1073 730 L 1073 737 L 1074 738 L 1074 741 L 1077 747 L 1078 752 L 1081 756 L 1085 764 L 1096 776 L 1097 776 L 1104 782 L 1115 788 L 1117 788 L 1121 790 L 1124 790 L 1128 792 L 1131 792 L 1132 793 L 1152 793 L 1153 792 L 1161 791 L 1162 790 L 1167 789 L 1179 783 L 1185 779 L 1189 775 L 1190 775 L 1198 766 L 1204 757 L 1210 742 L 1211 734 L 1212 733 L 1212 713 L 1211 712 L 1211 708 L 1210 707 L 1209 700 L 1207 697 L 1207 695 L 1204 689 L 1202 687 L 1199 681 L 1193 675 L 1193 674 L 1192 674 L 1191 672 L 1190 672 L 1184 666 L 1174 660 L 1172 660 L 1164 656 L 1161 656 L 1156 654 L 1151 654 L 1150 653 L 1135 653 L 1134 654 Z M 1169 726 L 1172 726 L 1173 725 L 1180 726 L 1184 728 L 1189 733 L 1191 737 L 1191 740 L 1192 741 L 1192 751 L 1189 754 L 1185 754 L 1184 755 L 1174 755 L 1173 754 L 1173 742 L 1172 741 L 1172 736 L 1170 733 L 1170 731 L 1168 729 L 1168 727 Z M 1115 726 L 1116 727 L 1116 729 L 1113 733 L 1112 739 L 1111 740 L 1111 754 L 1110 755 L 1100 755 L 1099 754 L 1096 754 L 1093 752 L 1093 738 L 1094 737 L 1095 733 L 1100 728 L 1104 726 L 1107 726 L 1108 725 L 1110 725 L 1111 726 Z M 1121 728 L 1127 723 L 1133 720 L 1136 720 L 1137 719 L 1147 719 L 1148 720 L 1151 720 L 1157 723 L 1165 731 L 1167 735 L 1167 737 L 1168 738 L 1168 741 L 1169 742 L 1169 760 L 1166 763 L 1164 763 L 1160 765 L 1157 765 L 1156 766 L 1152 766 L 1151 767 L 1135 767 L 1134 766 L 1128 766 L 1127 765 L 1124 765 L 1123 764 L 1121 764 L 1120 763 L 1116 762 L 1115 761 L 1115 741 L 1116 740 L 1116 736 L 1121 729 Z M 1171 700 L 1178 700 L 1182 703 L 1183 703 L 1186 707 L 1186 715 L 1185 717 L 1181 721 L 1177 723 L 1172 723 L 1168 721 L 1165 718 L 1163 714 L 1163 709 L 1164 708 L 1164 706 L 1169 701 Z M 1106 700 L 1113 700 L 1115 701 L 1119 705 L 1121 709 L 1121 714 L 1119 718 L 1114 722 L 1112 722 L 1111 723 L 1107 723 L 1103 721 L 1099 717 L 1099 715 L 1098 714 L 1098 708 L 1100 704 L 1102 702 Z M 1141 676 L 1143 676 L 1144 677 L 1148 677 L 1155 681 L 1159 686 L 1161 690 L 1161 692 L 1162 693 L 1162 699 L 1161 700 L 1161 703 L 1160 705 L 1152 713 L 1148 715 L 1144 715 L 1143 716 L 1141 715 L 1136 715 L 1129 711 L 1124 705 L 1123 701 L 1122 700 L 1122 693 L 1123 692 L 1123 689 L 1127 684 L 1127 683 L 1132 679 L 1136 677 L 1140 677 Z M 982 544 L 967 537 L 947 532 L 921 532 L 904 535 L 892 539 L 867 553 L 850 569 L 840 583 L 829 608 L 824 642 L 836 637 L 854 625 L 888 593 L 895 591 L 904 592 L 914 600 L 917 607 L 916 622 L 906 643 L 887 671 L 860 703 L 847 725 L 841 752 L 843 798 L 867 788 L 894 771 L 915 754 L 939 728 L 955 703 L 964 683 L 971 656 L 974 630 L 979 651 L 979 674 L 976 690 L 962 723 L 946 745 L 927 765 L 905 783 L 880 799 L 857 810 L 824 822 L 796 838 L 775 860 L 767 877 L 766 891 L 779 869 L 802 849 L 845 828 L 915 805 L 953 788 L 985 766 L 1000 751 L 1013 733 L 1023 714 L 1033 680 L 1035 660 L 1033 626 L 1024 595 L 1014 576 L 1006 565 Z M 896 405 L 895 406 L 889 406 L 888 407 L 885 407 L 884 408 L 879 409 L 868 415 L 858 424 L 858 425 L 855 428 L 852 434 L 850 436 L 850 438 L 848 441 L 848 443 L 847 444 L 847 446 L 845 450 L 845 455 L 844 456 L 844 471 L 845 472 L 845 477 L 846 478 L 846 481 L 847 482 L 848 487 L 852 495 L 854 497 L 856 501 L 866 511 L 867 511 L 873 516 L 877 517 L 885 521 L 889 521 L 890 522 L 909 522 L 910 521 L 913 521 L 914 520 L 919 519 L 933 511 L 941 503 L 941 502 L 946 496 L 951 486 L 951 484 L 953 480 L 953 476 L 954 475 L 954 467 L 955 466 L 955 464 L 954 463 L 954 453 L 953 452 L 953 448 L 952 447 L 951 442 L 945 430 L 942 427 L 942 426 L 932 416 L 924 412 L 922 410 L 920 410 L 917 408 L 914 408 L 913 407 L 910 407 L 909 406 Z"/>
<path fill="#eca305" fill-rule="evenodd" d="M 630 605 L 627 608 L 626 613 L 636 635 L 650 655 L 664 671 L 696 702 L 704 716 L 708 732 L 708 773 L 705 800 L 728 811 L 740 819 L 758 835 L 764 844 L 789 820 L 803 811 L 824 802 L 822 777 L 822 734 L 827 713 L 837 698 L 871 665 L 884 649 L 900 623 L 903 615 L 902 608 L 897 604 L 889 606 L 857 639 L 845 648 L 822 660 L 783 670 L 746 670 L 719 664 L 695 654 L 670 637 L 637 604 Z M 760 561 L 759 562 L 755 562 L 754 563 L 749 564 L 743 567 L 737 572 L 736 572 L 736 573 L 731 578 L 724 591 L 724 595 L 722 599 L 722 614 L 723 615 L 724 623 L 729 633 L 731 635 L 731 636 L 740 645 L 752 651 L 756 651 L 757 652 L 767 652 L 768 653 L 769 652 L 777 651 L 780 649 L 782 649 L 788 646 L 797 638 L 797 637 L 802 631 L 805 625 L 806 620 L 807 619 L 807 614 L 808 613 L 808 600 L 807 599 L 807 595 L 806 594 L 806 592 L 805 591 L 805 589 L 804 588 L 803 584 L 801 582 L 800 579 L 791 570 L 790 570 L 787 567 L 781 564 L 776 563 L 775 562 L 770 562 L 769 561 Z"/>
<path fill="#bac4c1" fill-rule="evenodd" d="M 569 1364 L 564 1368 L 563 1370 L 563 1376 L 568 1381 L 574 1381 L 576 1380 L 576 1379 L 579 1376 L 579 1369 L 577 1367 L 577 1366 L 573 1364 Z M 572 1364 L 573 1365 L 575 1365 L 578 1368 L 579 1370 L 579 1375 L 575 1380 L 573 1381 L 570 1381 L 569 1380 L 567 1380 L 564 1377 L 563 1375 L 563 1371 L 564 1370 L 564 1368 L 566 1366 L 568 1365 L 571 1365 Z M 1377 1152 L 1377 1157 L 1376 1158 L 1376 1161 L 1375 1162 L 1373 1170 L 1367 1182 L 1362 1188 L 1362 1189 L 1352 1199 L 1351 1199 L 1345 1204 L 1335 1209 L 1333 1209 L 1332 1210 L 1330 1210 L 1326 1212 L 1323 1212 L 1322 1213 L 1317 1213 L 1327 1212 L 1328 1211 L 1333 1210 L 1338 1207 L 1342 1206 L 1347 1202 L 1350 1201 L 1364 1187 L 1367 1181 L 1369 1179 L 1371 1175 L 1371 1173 L 1374 1168 L 1374 1166 L 1376 1162 L 1376 1158 L 1377 1157 Z M 1199 1146 L 1198 1144 L 1198 1149 L 1197 1150 L 1087 1150 L 1087 1155 L 1093 1166 L 1100 1173 L 1107 1177 L 1116 1180 L 1121 1180 L 1122 1181 L 1134 1181 L 1148 1177 L 1156 1173 L 1166 1165 L 1177 1175 L 1189 1188 L 1176 1200 L 1160 1208 L 1175 1201 L 1189 1189 L 1189 1186 L 1166 1165 L 1163 1166 L 1157 1172 L 1145 1178 L 1142 1178 L 1138 1180 L 1131 1180 L 1130 1181 L 1117 1180 L 1113 1178 L 1107 1177 L 1099 1172 L 1090 1161 L 1087 1155 L 1087 1151 L 1088 1150 L 1197 1150 Z M 1283 1100 L 1279 1103 L 1276 1104 L 1268 1112 L 1263 1122 L 1268 1112 L 1275 1105 L 1286 1099 L 1289 1099 L 1290 1098 L 1295 1098 L 1296 1097 L 1310 1098 L 1315 1101 L 1317 1101 L 1319 1103 L 1323 1105 L 1326 1108 L 1326 1109 L 1327 1109 L 1330 1112 L 1331 1115 L 1333 1117 L 1335 1121 L 1335 1123 L 1336 1124 L 1336 1128 L 1337 1129 L 1337 1146 L 1336 1147 L 1336 1151 L 1335 1152 L 1335 1154 L 1330 1163 L 1322 1171 L 1319 1172 L 1317 1174 L 1315 1174 L 1313 1176 L 1311 1176 L 1313 1176 L 1319 1173 L 1325 1168 L 1326 1168 L 1331 1162 L 1335 1154 L 1335 1152 L 1337 1148 L 1337 1128 L 1336 1127 L 1335 1121 L 1330 1112 L 1322 1104 L 1313 1099 L 1311 1099 L 1310 1098 L 1305 1098 L 1304 1097 L 1294 1097 L 1293 1098 L 1290 1098 L 1289 1099 Z M 1087 1119 L 1087 1121 L 1088 1116 L 1090 1112 L 1092 1110 L 1093 1107 L 1102 1099 L 1108 1096 L 1114 1095 L 1115 1094 L 1131 1094 L 1132 1095 L 1135 1095 L 1138 1097 L 1140 1097 L 1144 1099 L 1151 1105 L 1151 1106 L 1154 1109 L 1156 1113 L 1157 1119 L 1158 1120 L 1158 1122 L 1157 1123 L 1087 1123 L 1158 1123 L 1159 1122 L 1158 1121 L 1157 1115 L 1153 1107 L 1144 1099 L 1141 1098 L 1139 1096 L 1133 1095 L 1132 1094 L 1114 1094 L 1113 1095 L 1110 1095 L 1107 1097 L 1105 1097 L 1103 1099 L 1099 1101 L 1093 1107 L 1093 1108 L 1090 1111 L 1090 1113 Z M 833 1084 L 834 1090 L 835 1091 L 835 1094 L 837 1098 L 837 1101 L 838 1102 L 839 1109 L 840 1110 L 841 1116 L 843 1120 L 843 1123 L 844 1124 L 844 1127 L 845 1128 L 845 1131 L 846 1132 L 846 1135 L 848 1139 L 848 1142 L 849 1143 L 849 1146 L 850 1148 L 851 1144 L 852 1143 L 853 1136 L 854 1135 L 854 1133 L 855 1132 L 855 1130 L 857 1126 L 857 1123 L 859 1119 L 860 1113 L 860 1115 L 858 1119 L 858 1122 L 856 1126 L 856 1129 L 853 1135 L 853 1138 L 852 1139 L 852 1142 L 851 1143 L 851 1146 L 850 1147 L 849 1146 L 849 1142 L 847 1138 L 847 1135 L 846 1134 L 845 1127 L 843 1123 L 843 1119 L 842 1118 L 842 1116 L 840 1112 L 840 1109 L 839 1108 L 839 1105 L 838 1104 L 838 1101 L 837 1100 L 837 1097 L 836 1096 L 836 1094 L 834 1090 L 834 1086 Z M 823 1196 L 828 1211 L 870 1211 L 892 1136 L 910 1082 L 949 1211 L 992 1211 L 995 1202 L 992 1211 L 949 1211 L 910 1081 L 888 1149 L 871 1209 L 869 1211 L 828 1211 Z M 169 986 L 169 1015 L 170 1016 L 198 1016 L 199 1017 L 199 1046 L 200 1047 L 205 1047 L 206 1048 L 207 1047 L 234 1047 L 235 1046 L 235 1043 L 236 1042 L 235 1040 L 235 1035 L 236 1034 L 236 1020 L 235 1019 L 236 1017 L 234 1015 L 200 1015 L 199 1014 L 199 985 L 197 984 L 191 984 L 190 985 L 184 985 L 183 984 L 176 984 L 175 985 L 173 984 Z M 199 1017 L 201 1015 L 234 1015 L 235 1016 L 235 1046 L 234 1047 L 200 1047 L 199 1046 Z M 169 986 L 170 985 L 198 985 L 199 986 L 199 1015 L 198 1016 L 171 1016 L 169 1014 Z M 237 973 L 237 981 L 236 982 L 236 994 L 237 995 L 236 1001 L 237 1002 L 236 1003 L 238 1007 L 272 1007 L 238 1007 L 237 1006 L 237 974 L 238 973 L 273 973 L 274 974 L 274 1006 L 274 974 L 273 973 L 240 973 L 239 972 Z M 207 940 L 207 941 L 208 940 L 235 940 L 236 941 L 236 970 L 235 971 L 208 971 L 207 970 L 208 971 L 236 971 L 237 970 L 237 942 L 236 940 Z M 400 950 L 414 948 L 401 949 L 421 921 L 473 913 L 521 910 L 596 914 L 660 926 L 719 946 L 762 971 L 768 971 L 788 958 L 814 945 L 856 930 L 897 920 L 966 911 L 1036 911 L 1105 920 L 1111 923 L 1129 950 L 1116 948 L 1128 951 L 1129 948 L 1113 925 L 1105 920 L 1039 911 L 963 911 L 906 918 L 845 933 L 807 948 L 768 971 L 762 971 L 743 958 L 715 944 L 654 924 L 581 912 L 513 910 L 480 912 L 421 921 Z M 1152 644 L 1155 647 L 1159 647 L 1155 647 L 1153 645 L 1153 640 L 1155 637 L 1158 637 L 1159 638 L 1161 638 L 1162 639 L 1166 639 L 1167 640 L 1172 640 L 1173 641 L 1192 641 L 1193 640 L 1198 640 L 1199 639 L 1205 638 L 1206 639 L 1206 642 L 1205 643 L 1205 646 L 1204 647 L 1203 653 L 1204 647 L 1206 643 L 1206 638 L 1203 638 L 1202 639 L 1199 639 L 1198 640 L 1188 640 L 1187 641 L 1184 641 L 1183 640 L 1176 640 L 1175 641 L 1174 640 L 1167 640 L 1166 639 L 1163 639 L 1162 638 L 1159 638 L 1158 637 L 1154 637 L 1153 643 Z M 1229 396 L 1227 400 L 1227 402 L 1225 406 L 1223 408 L 1222 411 L 1220 413 L 1220 414 L 1213 422 L 1213 423 L 1201 434 L 1200 434 L 1195 438 L 1192 439 L 1190 441 L 1186 443 L 1184 443 L 1179 446 L 1174 447 L 1173 448 L 1165 449 L 1164 450 L 1150 450 L 1164 450 L 1165 449 L 1171 449 L 1174 447 L 1177 447 L 1180 445 L 1182 445 L 1185 443 L 1187 443 L 1192 439 L 1197 437 L 1199 435 L 1203 433 L 1215 421 L 1215 420 L 1221 413 L 1221 412 L 1223 410 L 1223 408 L 1225 406 L 1228 400 Z M 1182 310 L 1195 320 L 1205 332 L 1210 342 L 1210 345 L 1213 351 L 1213 355 L 1214 356 L 1214 372 L 1213 373 L 1213 379 L 1212 380 L 1212 383 L 1209 392 L 1207 394 L 1206 398 L 1199 408 L 1196 410 L 1193 414 L 1185 420 L 1180 422 L 1176 425 L 1167 428 L 1157 429 L 1156 430 L 1139 429 L 1135 427 L 1126 425 L 1124 423 L 1120 422 L 1111 416 L 1103 408 L 1093 393 L 1093 391 L 1090 385 L 1088 373 L 1089 383 L 1096 399 L 1101 406 L 1112 417 L 1121 423 L 1123 423 L 1128 426 L 1134 428 L 1144 429 L 1145 430 L 1156 430 L 1157 429 L 1168 428 L 1182 422 L 1192 415 L 1200 407 L 1206 398 L 1211 387 L 1212 381 L 1213 380 L 1213 375 L 1214 374 L 1214 356 L 1213 355 L 1213 351 L 1210 342 L 1203 329 L 1191 316 Z M 961 180 L 969 184 L 971 186 L 980 190 L 983 193 L 988 195 L 993 199 L 996 200 L 1002 205 L 1005 206 L 1008 209 L 1012 211 L 1016 215 L 1019 216 L 1030 226 L 1031 226 L 1036 231 L 1037 231 L 1043 237 L 1044 237 L 1047 240 L 1047 241 L 1048 241 L 1063 256 L 1063 257 L 1064 257 L 1066 259 L 1066 260 L 1068 261 L 1070 265 L 1071 265 L 1073 267 L 1073 268 L 1077 272 L 1077 273 L 1078 273 L 1079 275 L 1084 280 L 1084 281 L 1087 284 L 1087 285 L 1090 288 L 1090 289 L 1093 293 L 1093 292 L 1085 282 L 1085 281 L 1080 276 L 1080 275 L 1075 270 L 1075 269 L 1068 262 L 1068 261 L 1042 235 L 1041 235 L 1035 229 L 1034 229 L 1029 224 L 1028 224 L 1023 219 L 1022 219 L 1015 213 L 1011 211 L 1008 208 L 1007 208 L 993 198 L 990 197 L 988 195 L 982 192 L 980 190 L 977 189 L 975 187 Z M 716 151 L 719 151 L 720 150 L 723 150 L 724 149 L 729 149 L 730 148 L 733 148 L 734 147 L 746 146 L 747 145 L 754 145 L 755 144 L 761 144 L 762 143 L 774 143 L 775 142 L 787 142 L 788 141 L 812 141 L 813 142 L 830 142 L 831 143 L 840 143 L 841 144 L 847 144 L 848 145 L 856 145 L 857 146 L 862 146 L 863 147 L 866 147 L 867 148 L 870 148 L 871 149 L 875 149 L 876 150 L 884 151 L 882 151 L 881 150 L 877 150 L 876 149 L 873 149 L 872 148 L 867 148 L 866 147 L 863 147 L 862 146 L 857 146 L 856 145 L 850 145 L 849 144 L 843 144 L 842 143 L 833 143 L 832 142 L 816 142 L 815 141 L 787 141 L 786 142 L 771 142 L 770 143 L 761 143 L 760 144 L 753 144 L 752 145 L 747 145 L 746 146 L 740 146 L 739 147 L 734 147 L 733 148 L 729 148 L 728 149 L 724 149 L 723 150 L 719 150 L 718 151 Z M 898 130 L 909 131 L 910 132 L 914 132 L 919 134 L 923 134 L 924 135 L 927 135 L 928 136 L 931 136 L 932 137 L 943 139 L 944 140 L 946 140 L 953 143 L 956 143 L 957 144 L 962 145 L 965 147 L 973 149 L 981 153 L 986 154 L 993 158 L 995 158 L 1023 172 L 1025 174 L 1030 176 L 1040 183 L 1043 184 L 1055 192 L 1074 207 L 1075 207 L 1080 212 L 1086 216 L 1093 223 L 1093 222 L 1091 221 L 1084 214 L 1079 211 L 1075 207 L 1074 207 L 1070 203 L 1069 203 L 1065 199 L 1061 197 L 1054 191 L 1051 190 L 1042 183 L 1037 181 L 1034 178 L 1027 175 L 1022 171 L 1018 170 L 1014 167 L 1008 164 L 1006 164 L 1000 160 L 998 160 L 989 155 L 987 155 L 986 154 L 981 153 L 978 151 L 976 151 L 971 148 L 969 148 L 968 147 L 966 147 L 965 146 L 963 146 L 953 142 L 950 142 L 943 139 L 940 139 L 939 138 L 928 136 L 921 133 L 916 133 L 915 132 L 910 132 L 909 131 Z M 896 129 L 892 129 L 891 128 L 883 128 L 882 127 L 873 127 L 872 126 L 854 126 L 853 125 L 825 125 L 824 126 L 809 126 L 808 127 L 792 128 L 791 129 L 785 129 L 784 130 L 780 130 L 779 131 L 768 132 L 767 133 L 764 133 L 763 134 L 760 134 L 759 135 L 756 135 L 755 136 L 752 136 L 751 137 L 740 139 L 739 140 L 737 140 L 736 141 L 734 141 L 733 142 L 722 145 L 719 147 L 708 150 L 705 152 L 703 152 L 700 154 L 698 154 L 696 156 L 699 156 L 700 155 L 707 154 L 711 152 L 714 152 L 711 152 L 710 153 L 707 153 L 706 154 L 703 154 L 702 153 L 703 152 L 708 151 L 711 149 L 719 147 L 722 145 L 724 145 L 725 144 L 727 144 L 734 141 L 737 141 L 741 139 L 744 139 L 745 138 L 748 138 L 752 136 L 756 136 L 757 135 L 760 135 L 761 134 L 764 134 L 765 133 L 769 133 L 770 132 L 773 132 L 774 131 L 786 130 L 787 129 L 793 129 L 794 128 L 800 128 L 801 127 L 811 127 L 812 126 L 826 126 L 827 125 L 853 125 L 854 126 L 871 126 L 872 127 L 881 127 L 882 128 Z"/>
<path fill="#6179a4" fill-rule="evenodd" d="M 1311 1284 L 1311 1288 L 1312 1289 L 1374 1289 L 1375 1288 L 1375 1284 L 1374 1283 L 1312 1283 Z M 1311 1284 L 1312 1283 L 1374 1283 L 1375 1284 L 1375 1288 L 1374 1289 L 1312 1289 L 1311 1288 Z"/>
</svg>